<svg width="24" height="24" viewBox="0 0 24 24" fill="none" xmlns="http://www.w3.org/2000/svg">
<mask id="mask0_112_401" style="mask-type:alpha" maskUnits="userSpaceOnUse" x="0" y="0" width="24" height="24">
<rect width="24" height="24" fill="#D9D9D9"/>
</mask>
<g mask="url(#mask0_112_401)">
<path d="M12 21C10.9167 21 9.9125 20.7333 8.9875 20.2C8.0625 19.6667 7.33333 18.9333 6.8 18H4.975C4.69167 18 4.45833 17.9042 4.275 17.7125C4.09167 17.5208 4 17.2833 4 17C4 16.7167 4.09583 16.4792 4.2875 16.2875C4.47917 16.0958 4.71667 16 5 16H6.1C6.05 15.6667 6.02083 15.3333 6.0125 15C6.00417 14.6667 6 14.3333 6 14H4.975C4.69167 14 4.45833 13.9042 4.275 13.7125C4.09167 13.5208 4 13.2833 4 13C4 12.7167 4.09583 12.4792 4.2875 12.2875C4.47917 12.0958 4.71667 12 5 12H6C6 11.6667 6.00417 11.3333 6.0125 11C6.02083 10.6667 6.05 10.3333 6.1 10H4.975C4.69167 10 4.45833 9.90417 4.275 9.7125C4.09167 9.52083 4 9.28333 4 9C4 8.71667 4.09583 8.47917 4.2875 8.2875C4.47917 8.09583 4.71667 8 5 8H6.8C7.03333 7.61667 7.29583 7.25833 7.5875 6.925C7.87917 6.59167 8.21667 6.3 8.6 6.05L7.675 5.1C7.49167 4.9 7.40417 4.6625 7.4125 4.3875C7.42083 4.1125 7.51667 3.88333 7.7 3.7C7.88333 3.51667 8.11667 3.425 8.4 3.425C8.68333 3.425 8.91667 3.51667 9.1 3.7L10.55 5.15C11.0167 5 11.4917 4.925 11.975 4.925C12.4583 4.925 12.9333 5 13.4 5.15L14.9 3.675C15.1 3.49167 15.3375 3.40417 15.6125 3.4125C15.8875 3.42083 16.1167 3.51667 16.3 3.7C16.4833 3.88333 16.575 4.11667 16.575 4.4C16.575 4.68333 16.4833 4.91667 16.3 5.1L15.35 6.05C15.7333 6.3 16.0792 6.5875 16.3875 6.9125C16.6958 7.2375 16.9667 7.6 17.2 8H19.025C19.3083 8 19.5417 8.09583 19.725 8.2875C19.9083 8.47917 20 8.71667 20 9C20 9.28333 19.9042 9.52083 19.7125 9.7125C19.5208 9.90417 19.2833 10 19 10H17.9C17.95 10.3333 17.9792 10.6667 17.9875 11C17.9958 11.3333 18 11.6667 18 12H19.025C19.3083 12 19.5417 12.0958 19.725 12.2875C19.9083 12.4792 20 12.7167 20 13C20 13.2833 19.9042 13.5208 19.7125 13.7125C19.5208 13.9042 19.2833 14 19 14H18C18 14.3333 17.9958 14.6667 17.9875 15C17.9792 15.3333 17.95 15.6667 17.9 16H19.025C19.3083 16 19.5417 16.0958 19.725 16.2875C19.9083 16.4792 20 16.7167 20 17C20 17.2833 19.9042 17.5208 19.7125 17.7125C19.5208 17.9042 19.2833 18 19 18H17.2C16.6667 18.9333 15.9375 19.6667 15.0125 20.2C14.0875 20.7333 13.0833 21 12 21ZM12 19C13.1 19 14.0417 18.6083 14.825 17.825C15.6083 17.0417 16 16.1 16 15V11C16 9.9 15.6083 8.95833 14.825 8.175C14.0417 7.39167 13.1 7 12 7C10.9 7 9.95833 7.39167 9.175 8.175C8.39167 8.95833 8 9.9 8 11V15C8 16.1 8.39167 17.0417 9.175 17.825C9.95833 18.6083 10.9 19 12 19ZM11 16H13.025C13.3083 16 13.5417 15.9042 13.725 15.7125C13.9083 15.5208 14 15.2833 14 15C14 14.7167 13.9042 14.4792 13.7125 14.2875C13.5208 14.0958 13.2833 14 13 14H10.975C10.6917 14 10.4583 14.0958 10.275 14.2875C10.0917 14.4792 10 14.7167 10 15C10 15.2833 10.0958 15.5208 10.2875 15.7125C10.4792 15.9042 10.7167 16 11 16ZM11 12H13.025C13.3083 12 13.5417 11.9042 13.725 11.7125C13.9083 11.5208 14 11.2833 14 11C14 10.7167 13.9042 10.4792 13.7125 10.2875C13.5208 10.0958 13.2833 10 13 10H10.975C10.6917 10 10.4583 10.0958 10.275 10.2875C10.0917 10.4792 10 10.7167 10 11C10 11.2833 10.0958 11.5208 10.2875 11.7125C10.4792 11.9042 10.7167 12 11 12Z" fill="#D9D9D9"/>
</g>
</svg>
