<svg width="260" height="48" viewBox="0 0 260 48" style="width: 130px" fill="none" xmlns="http://www.w3.org/2000/svg">
<path d="M55.2918 11.737C55.2918 11.737 46.9202 35.1405 46.6016 36.0047C46.427 35.5682 37.0649 11.737 37.0649 11.737H28.6279C28.6279 11.737 19.3007 36.0047 19.1654 36.332C19.017 35.9959 9.07421 11.737 9.07421 11.737H0L15.1366 46.8946H23.4295L32.8878 22.0158H33.0361C33.1321 22.2559 42.6998 46.8946 42.6998 46.8946H51.2804C51.2804 46.8946 64.4836 12.0251 64.5752 11.737H55.2918Z" fill="black"></path>
<path d="M111.67 0C111.67 0 111.67 15.4641 111.67 15.8351C111.425 15.6125 111.303 15.5165 111.194 15.3986C107.222 11.3831 102.421 9.72453 96.8429 10.4709C90.8633 11.2565 86.4198 14.2944 83.849 19.7982C81.6666 24.4117 81.453 29.274 82.4744 34.2017C83.4346 38.8326 85.6562 42.7478 89.7503 45.2749C95.4244 48.7667 101.356 48.7667 107.344 46.0518C109.002 45.3013 110.487 44.2183 111.709 42.87L111.87 42.9224V46.8506H120.6V0H111.67ZM111.447 32.7745C110.574 37.5407 106.781 40.6309 101.727 40.7269C95.878 40.8404 91.7144 37.1872 90.9506 31.2643C90.6546 29.2027 90.7746 27.1026 91.3039 25.0882C92.6133 20.2609 96.3977 17.4457 101.408 17.533C103.478 17.4998 105.518 18.0309 107.309 19.0693C110.303 20.9069 111.595 23.6915 111.674 27.1135C111.674 27.7245 111.674 28.3356 111.674 28.9466H111.757C111.718 30.2257 111.614 31.5019 111.443 32.7701" fill="black"></path>
<path d="M152.519 11.5188C147.816 9.7433 142.649 9.62781 137.871 11.1914C135.551 11.8741 133.42 13.086 131.647 14.7317C129.874 16.3775 128.507 18.4123 127.654 20.6759C125.593 25.7808 125.51 31.4707 127.422 36.6332C128.762 40.4174 131.137 43.4727 134.729 45.319C141.655 48.8675 148.696 48.7016 155.57 45.1967C158.705 43.6597 161.128 40.9743 162.335 37.6982C162.599 36.9945 162.778 36.2619 162.868 35.5159H154.243C154.243 35.5159 154.047 35.8301 153.977 35.9523C153.469 36.7815 152.854 37.5402 152.148 38.2089C149.935 40.1337 147.251 40.7055 144.392 40.5745C139.194 40.3389 135.663 37.0304 135.082 31.8714C135.072 31.7537 135.072 31.6354 135.082 31.5178H162.947C162.955 31.4643 162.955 31.4099 162.947 31.3563C163.025 29.5789 163.011 27.7987 162.907 26.0227C162.575 19.1832 158.94 13.9106 152.511 11.5319L152.519 11.5188ZM135.178 25.7346C135.178 25.7346 135.178 25.2414 135.178 24.962C135.471 21.7409 137.077 19.4451 140.08 18.2579C141.552 17.6427 143.133 17.3296 144.728 17.3371C146.324 17.3446 147.902 17.6725 149.368 18.3015C152.393 19.576 153.837 22.0028 154.064 25.2239C154.064 25.4116 154.064 25.7215 154.064 25.7215L135.178 25.7346Z" fill="black"></path>
<path d="M234.585 12.3382C232.933 13.2803 231.4 14.4174 230.019 15.7252C230.019 10.4876 230.019 5.24993 230.019 0.0122986C227.252 0.0428514 221.067 0.0122986 221.067 0.0122986C221.067 0.0122986 221.067 31.5123 221.067 46.9284H229.757V42.891C230.534 43.5457 231.202 44.2004 231.966 44.7373C235.149 46.9648 238.968 48.1024 242.851 47.9802C249.031 47.8493 253.99 45.3614 257.063 39.8794C260.354 34.0307 260.611 27.7761 258.499 21.504C254.688 10.2213 242.057 8.14373 234.571 12.3382H234.585ZM249.682 35.1743C247.967 38.7228 245.068 40.5515 241.144 40.7436C239.161 40.8829 237.175 40.518 235.37 39.683C231.782 37.9676 229.879 34.1791 229.879 29.4652C229.879 22.6214 233.371 19.0642 236.889 18.0777C240.616 17.0346 244.182 17.3707 247.264 19.9677C249.202 21.5957 250.223 23.7737 250.673 26.2223C251.236 29.2776 251.066 32.3328 249.682 35.1743Z" fill="black"></path>
<path d="M214.533 19.9329C213.822 16.6812 212.159 14.0231 209.16 12.3514C207.099 11.2585 204.821 10.6354 202.491 10.527C198.886 10.2608 195.311 10.4004 191.867 11.64C188.677 12.7879 186.303 14.8262 185.098 18.0648C184.603 19.4006 184.347 20.813 184.343 22.2375H192.915C192.915 22.2375 192.937 21.9101 192.967 21.7268C193.087 20.8415 193.452 20.0073 194.02 19.3179C194.589 18.6286 195.338 18.1115 196.184 17.8248C197.782 17.2455 199.5 17.073 201.182 17.3228C202.521 17.4025 203.783 17.9782 204.721 18.9378C206.402 20.7797 206.197 23.0493 206.183 25.3582C205.874 25.3582 203.329 25.3582 203.089 25.3582C200.566 25.4368 200.2 25.4237 197.816 25.6201C194.866 25.8689 191.946 26.301 189.196 27.4925C184.783 29.4086 182.479 32.8393 182.557 37.3786C182.632 41.7433 184.997 45.235 188.925 46.7147C191.907 47.8451 194.984 47.9062 198.091 47.3344C201.491 46.7059 204.35 45.1521 206.314 42.2146C206.341 42.1754 206.402 42.1623 206.55 42.0837V46.8849H215.175C215.175 46.8849 215.24 32.3155 215.175 25.1531C215.148 23.4033 214.939 21.6611 214.551 19.9547L214.533 19.9329ZM206.258 35.4275C206.157 37.073 205.227 38.3432 203.97 39.3121C201.09 41.5381 197.829 41.9921 194.438 40.8485C191.047 39.705 190.51 35.3054 193.299 32.9921C194.477 32.0741 195.859 31.4542 197.328 31.1851C198.34 30.9668 199.37 30.8097 200.383 30.6875C201.395 30.5653 202.412 30.5173 203.167 30.4867C205.044 30.4125 206.284 30.4605 206.284 30.4605C206.284 30.4605 206.327 33.9523 206.24 35.4145" fill="black"></path>
<path d="M168.337 0V46.9335H177.276C177.276 46.6018 177.276 0.0218181 177.276 0.0218181L168.337 0Z" fill="black"></path>
<path d="M67.2695 11.7405V46.8894L76.2125 46.8806L76.2257 11.7405H67.2695Z" fill="black"></path>
</svg>